<?xml version="1.0" encoding="utf-8"?>
<!-- Generator: Adobe Illustrator 21.1.0, SVG Export Plug-In . SVG Version: 6.00 Build 0)  -->
<svg version="1.1" id="Layer_1" xmlns="http://www.w3.org/2000/svg" xmlns:xlink="http://www.w3.org/1999/xlink" x="0px" y="0px"
	 width="379px" height="69px" viewBox="0 0 379 69" style="enable-background:new 0 0 379 69;" xml:space="preserve">
<style type="text/css">
	.st0{enable-background:new    ;}
	.st1{fill:#181B28;}
	.st2{fill:#0F5DED;}
	.st3{filter:url(#Adobe_OpacityMaskFilter);}
	.st4{fill:#FFFFFF;}
	.st5{mask:url(#mask-2);}
	.st6{filter:url(#filter-4);}
	.st7{fill:#0084F4;}
</style>
<filter  filterUnits="objectBoundingBox" height="268.6%" id="filter-4" width="264.3%" x="-82.1%" y="-84.3%">
	<feOffset  dx="0" dy="0" in="SourceAlpha" result="shadowOffsetOuter1"></feOffset>
	<feGaussianBlur  in="shadowOffsetOuter1" result="shadowBlurOuter1" stdDeviation="12"></feGaussianBlur>
	
		<feColorMatrix  in="shadowBlurOuter1" type="matrix" values="0 0 0 0 0.0941176471   0 0 0 0 0.105882353   0 0 0 0 0.156862745  0 0 0 0.5 0">
		</feColorMatrix>
</filter>
<title>Group 2</title>
<desc>Created with Sketch.</desc>
<g id="Desktop-HD" transform="translate(-564.000000, -59.000000)">
	<g id="Group-2" transform="translate(564.000000, 59.000000)">
		<g class="st0">
			<path class="st1" d="M108.2,25.3c-0.1-0.4-0.2-0.8-0.4-1.3c-0.2-0.5-0.5-1-1-1.4s-1-0.8-1.7-1.1s-1.6-0.5-2.6-0.5
				c-1.4,0-2.5,0.4-3.4,1.1c-0.8,0.7-1.3,1.6-1.3,2.5c0,0.8,0.3,1.5,0.8,2.1s1.4,0.9,2.6,1.2l4.5,0.9c1.6,0.3,3,0.8,4.3,1.4
				c1.2,0.7,2.2,1.4,3.1,2.3c0.8,0.9,1.4,1.9,1.9,3c0.4,1.1,0.6,2.3,0.6,3.5c0,1.3-0.3,2.6-0.8,3.9c-0.5,1.3-1.3,2.4-2.4,3.4
				c-1.1,1-2.4,1.8-3.9,2.4c-1.6,0.6-3.3,0.9-5.4,0.9c-2.4,0-4.4-0.3-6.1-1c-1.7-0.7-3.1-1.6-4.2-2.6c-1.1-1.1-2-2.2-2.5-3.5
				c-0.6-1.3-0.9-2.5-1.1-3.7l6.9-1.7c0.1,0.8,0.2,1.5,0.5,2.2c0.3,0.7,0.7,1.3,1.3,1.9c0.6,0.5,1.3,0.9,2.2,1.3
				c0.9,0.3,1.9,0.5,3,0.5c1.5,0,2.7-0.3,3.5-1c0.8-0.7,1.3-1.5,1.3-2.6c0-0.9-0.3-1.6-1-2.2c-0.7-0.6-1.5-1-2.7-1.2l-4.6-0.9
				c-2.9-0.5-5.2-1.7-6.8-3.5c-1.6-1.8-2.4-3.9-2.4-6.5c0-1.6,0.3-3.1,1-4.4s1.5-2.5,2.7-3.4c1.1-1,2.4-1.7,3.9-2.2
				c1.5-0.5,3-0.8,4.6-0.8c2.1,0,3.9,0.3,5.4,0.9c1.5,0.6,2.7,1.3,3.7,2.2c1,0.9,1.7,1.8,2.2,2.9c0.5,1.1,0.9,2.1,1.1,3.1
				L108.2,25.3z"/>
			<path class="st1" d="M129.6,25.3h4.6v6.4h-4.6v8.9c0,1,0.2,1.6,0.7,2c0.5,0.3,1.1,0.5,1.9,0.5c0.4,0,0.7,0,1.1-0.1
				s0.6-0.1,0.8-0.2v6c-0.2,0.1-0.5,0.2-1.1,0.4c-0.6,0.2-1.5,0.3-2.6,0.3c-2.5,0-4.4-0.7-5.8-2c-1.4-1.4-2.1-3.2-2.1-5.6V31.6h-4.2
				v-6.4h1.2c1.2,0,2.2-0.4,2.8-1.1c0.6-0.7,0.9-1.7,0.9-2.8v-3.1h6.5V25.3z"/>
			<path class="st1" d="M150,24.5c1.8,0,3.4,0.3,5,0.9c1.5,0.6,2.9,1.5,4,2.6c1.1,1.1,2,2.4,2.7,4c0.7,1.5,1,3.2,1,5.1
				c0,1.8-0.3,3.5-1,5.1c-0.7,1.5-1.5,2.9-2.7,4c-1.1,1.1-2.5,2-4,2.6c-1.5,0.6-3.2,0.9-5,0.9c-1.8,0-3.4-0.3-5-0.9s-2.9-1.5-4-2.6
				c-1.1-1.1-2-2.4-2.7-4s-1-3.2-1-5.1c0-1.8,0.3-3.5,1-5.1s1.5-2.9,2.7-4c1.1-1.1,2.5-2,4-2.6S148.2,24.5,150,24.5z M150,43
				c0.7,0,1.4-0.1,2-0.4c0.6-0.2,1.2-0.6,1.7-1.1c0.5-0.5,0.9-1.1,1.2-1.8c0.3-0.7,0.5-1.6,0.5-2.6c0-1-0.2-1.9-0.5-2.6
				c-0.3-0.7-0.7-1.4-1.2-1.8c-0.5-0.5-1.1-0.8-1.7-1.1c-0.6-0.2-1.3-0.4-2-0.4c-0.7,0-1.3,0.1-2,0.4c-0.7,0.2-1.2,0.6-1.7,1.1
				c-0.5,0.5-0.9,1.1-1.2,1.8c-0.3,0.7-0.5,1.6-0.5,2.6c0,1,0.2,1.9,0.5,2.6c0.3,0.7,0.7,1.4,1.2,1.9c0.5,0.5,1.1,0.9,1.7,1.1
				C148.7,42.9,149.3,43,150,43z"/>
			<path class="st1" d="M182.4,32.4c-0.4-0.1-0.8-0.2-1.2-0.2c-0.4,0-0.7,0-1.1,0c-0.7,0-1.4,0.1-2.1,0.3c-0.7,0.2-1.3,0.6-1.8,1.1
				c-0.5,0.5-0.9,1.2-1.2,2c-0.3,0.8-0.5,1.8-0.5,3V49h-7.3V25.3h7v3.2c0.3-0.7,0.7-1.2,1.2-1.7c0.5-0.4,1-0.8,1.6-1.1
				s1.2-0.4,1.7-0.5c0.6-0.1,1.1-0.2,1.6-0.2c0.7,0,1.4,0.1,1.9,0.2V32.4z"/>
			<path class="st1" d="M189.6,58.1l5.4-12.3l-10-20.5h8.1l5.8,12.7l5.3-12.7h7.7l-14.6,32.9H189.6z"/>
			<path class="st1" d="M227.8,49V15.1h21.5v7.1h-13.9v6.5H248v6.6h-12.6v6.5h14V49H227.8z"/>
			<path class="st1" d="M260.8,37.2l-8.3-11.9h8.6l4.3,6.5l4.2-6.5h8.1l-8.2,11.6c1.3,1.9,2.7,3.9,4.2,6.1c1.5,2.1,2.9,4.2,4.3,6.1
				h-8.5l-4.4-6.7c-0.3,0.5-0.7,1-1.1,1.6c-0.4,0.6-0.8,1.2-1.1,1.7c-0.4,0.6-0.8,1.2-1.1,1.8c-0.4,0.6-0.7,1.1-1,1.6h-8L260.8,37.2
				z"/>
			<path class="st1" d="M290.7,25.3h4.6v6.4h-4.6v8.9c0,1,0.2,1.6,0.7,2c0.5,0.3,1.1,0.5,1.9,0.5c0.4,0,0.7,0,1.1-0.1
				c0.3,0,0.6-0.1,0.8-0.2v6c-0.2,0.1-0.5,0.2-1.1,0.4c-0.6,0.2-1.5,0.3-2.6,0.3c-2.5,0-4.4-0.7-5.8-2c-1.4-1.4-2.1-3.2-2.1-5.6
				V31.6h-4.2v-6.4h1.2c1.2,0,2.2-0.4,2.8-1.1c0.6-0.7,0.9-1.7,0.9-2.8v-3.1h6.5V25.3z"/>
			<path class="st1" d="M321.8,42.2c-0.3,1-0.7,2-1.3,2.9c-0.6,0.9-1.4,1.7-2.3,2.4c-0.9,0.7-2,1.2-3.2,1.6
				c-1.2,0.4-2.6,0.6-4.1,0.6c-1.6,0-3.2-0.3-4.7-0.9c-1.5-0.6-2.8-1.4-4-2.5c-1.1-1.1-2.1-2.4-2.7-4c-0.7-1.6-1-3.3-1-5.4
				c0-1.9,0.3-3.6,1-5.2c0.7-1.5,1.5-2.9,2.6-3.9c1.1-1.1,2.4-1.9,3.8-2.5s2.9-0.9,4.4-0.9c3.7,0,6.6,1.1,8.7,3.2
				c2.1,2.1,3.2,5.1,3.2,9c0,0.5,0,1,0,1.5c0,0.5-0.1,0.7-0.1,0.8h-16.5c0,0.7,0.2,1.3,0.5,1.8c0.3,0.6,0.7,1,1.2,1.5
				c0.5,0.4,1.1,0.7,1.7,1c0.6,0.2,1.3,0.3,2,0.3c1.3,0,2.4-0.3,3.1-0.9c0.7-0.6,1.3-1.3,1.6-2.2L321.8,42.2z M315.2,34.3
				c0-0.4-0.1-0.9-0.3-1.4c-0.2-0.5-0.5-0.9-0.8-1.3c-0.4-0.4-0.9-0.7-1.5-1c-0.6-0.3-1.3-0.4-2.2-0.4c-0.8,0-1.4,0.1-2,0.4
				c-0.6,0.3-1.1,0.6-1.5,1c-0.4,0.4-0.7,0.8-0.9,1.3c-0.2,0.5-0.3,0.9-0.4,1.4H315.2z"/>
			<path class="st1" d="M334.2,49h-7.3V25.3h7V28c0.3-0.6,0.7-1.1,1.2-1.5s1.1-0.8,1.6-1c0.6-0.3,1.2-0.5,1.9-0.6
				c0.7-0.1,1.3-0.2,1.9-0.2c1.5,0,2.8,0.2,3.9,0.7c1.1,0.5,2,1.2,2.7,2s1.2,1.9,1.6,3c0.3,1.1,0.5,2.4,0.5,3.7V49H342V35.3
				c0-1.2-0.3-2.2-0.9-2.9c-0.6-0.8-1.6-1.2-2.9-1.2c-1.2,0-2.2,0.4-2.9,1.2c-0.7,0.8-1.1,1.8-1.1,3V49z"/>
			<path class="st1" d="M378.7,44.7c0,1.1,0,2,0.1,2.7c0,0.7,0.1,1.2,0.1,1.5h-7c0-0.2-0.1-0.5-0.1-0.9c0-0.4-0.1-0.9-0.1-1.4
				c-0.5,0.8-1.4,1.5-2.5,2s-2.4,0.8-3.8,0.8c-1.7,0-3.2-0.3-4.7-0.9S358,47.1,357,46c-1.1-1.1-1.9-2.4-2.5-3.9
				c-0.6-1.5-0.9-3.2-0.9-5c0-1.8,0.3-3.4,0.9-4.9c0.6-1.5,1.4-2.8,2.4-3.9c1-1.1,2.2-2,3.6-2.6c1.4-0.6,2.9-0.9,4.6-0.9
				c1,0,1.9,0.1,2.6,0.3c0.7,0.2,1.4,0.4,1.9,0.6c0.5,0.2,0.9,0.5,1.2,0.8c0.3,0.3,0.5,0.5,0.7,0.8V14.4h7.2V44.7z M361,37.1
				c0,1,0.1,1.8,0.4,2.6c0.3,0.7,0.7,1.3,1.2,1.8c0.5,0.5,1.1,0.9,1.7,1.1c0.7,0.3,1.3,0.4,2,0.4c0.7,0,1.4-0.1,2-0.4
				c0.7-0.3,1.2-0.6,1.7-1.1c0.5-0.5,0.9-1.1,1.2-1.8c0.3-0.7,0.4-1.6,0.4-2.6c0-1-0.1-1.8-0.4-2.6c-0.3-0.7-0.7-1.3-1.2-1.8
				c-0.5-0.5-1.1-0.9-1.7-1.1c-0.7-0.2-1.3-0.4-2-0.4c-0.7,0-1.4,0.1-2,0.4c-0.7,0.2-1.2,0.6-1.7,1.1c-0.5,0.5-0.9,1.1-1.2,1.8
				C361.1,35.3,361,36.1,361,37.1z"/>
		</g>
		<g id="Group" transform="translate(36.000000, 34.500000) scale(1, -1) translate(-36.000000, -34.500000) ">
			<g id="Rectangle" transform="translate(0.000000, 7.000000)">
				<g id="Mask">
					<path id="path-1_1_" class="st2" d="M31,0L31,0c17.1,0,31,13.9,31,31l0,0c0,17.1-13.9,31-31,31l0,0C13.9,62,0,48.1,0,31l0,0
						C0,13.9,13.9,0,31,0z"/>
				</g>
				<defs>
					<filter id="Adobe_OpacityMaskFilter" filterUnits="userSpaceOnUse" x="-7.7" y="-72" width="116" height="115">
						<feColorMatrix  type="matrix" values="1 0 0 0 0  0 1 0 0 0  0 0 1 0 0  0 0 0 1 0"/>
					</filter>
				</defs>
				<mask maskUnits="userSpaceOnUse" x="-7.7" y="-72" width="116" height="115" id="mask-2">
					<g class="st3">
						<path id="path-1" class="st4" d="M31,0L31,0c17.1,0,31,13.9,31,31l0,0c0,17.1-13.9,31-31,31l0,0C13.9,62,0,48.1,0,31l0,0
							C0,13.9,13.9,0,31,0z"/>
					</g>
				</mask>
				<g class="st5">
					<g class="st6">
						<path id="path-3_1_" d="M49.6-6.7h1.1c11.8,0,21.4,9.6,21.4,21.4l0,0c0,11.8-9.6,21.4-21.4,21.4h-1.1
							c-11.8,0-21.4-9.6-21.4-21.4l0,0C28.3,2.8,37.8-6.7,49.6-6.7z"/>
					</g>
				</g>
			</g>
			<path id="Rectangle_1_" class="st7" d="M50.5,0L50.5,0C62.4,0,72,9.6,72,21.5l0,0C72,33.4,62.4,43,50.5,43l0,0
				C38.6,43,29,33.4,29,21.5l0,0C29,9.6,38.6,0,50.5,0z"/>
		</g>
	</g>
</g>
</svg>
