<?xml version="1.0" encoding="utf-8"?>
<!-- Generator: Adobe Illustrator 21.1.0, SVG Export Plug-In . SVG Version: 6.00 Build 0)  -->
<svg version="1.1" id="Layer_1" xmlns="http://www.w3.org/2000/svg" xmlns:xlink="http://www.w3.org/1999/xlink" x="0px" y="0px"
	 width="500px" height="500px" viewBox="0 0 500 500" style="enable-background:new 0 0 500 500;" xml:space="preserve">
<style type="text/css">
	.st0{clip-path:url(#SVGID_2_);}
	.st1{fill:#DCDDE0;}
</style>
<g>
	<defs>
		<rect id="SVGID_1_" width="500" height="500"/>
	</defs>
	<clipPath id="SVGID_2_">
		<use xlink:href="#SVGID_1_"  style="overflow:visible;"/>
	</clipPath>
	<g class="st0">
		<path class="st1" d="M95.8-15.2l-115,31.5c-7.1,1.9-11.2,9.2-9.3,16.3l21,76.7c1.9,7.1,9.2,11.2,16.3,9.3l31.9-8.7l3.5,12.8
			l51.1-14l-3.5-12.8l31.9-8.7c7.1-1.9,11.1-9.2,9.2-16.3L112-6C110.1-13,102.8-17.2,95.8-15.2z M120.2,74.2l-115,31.5l-21-76.7
			l115-31.5L120.2,74.2z M77.8,44.6L40.1,82.4l-14-51.1L77.8,44.6z"/>
	</g>
	<g class="st0">
		<path class="st1" d="M482.8,3.7c1.1-3.9-1.1-7.9-5-9.1l-63.3-18.5c-3.9-1.1-7.9,1.1-9.1,5l-14.4,49.2c-1.1,3.9,1.1,7.9,5,9.1
			l63.3,18.5c3.9,1.1,7.9-1.1,9.1-5L482.8,3.7z M461.4,50.8l-63.3-18.5l14.4-49.2l63.3,18.5L461.4,50.8z M419.9,23.4
			c1.7-5.8,7.8-9.2,13.6-7.5c1.2,0.4,1.7,0.8,3.3,1.7l6.4-21.7l17.6,5.1l-2.1,7L448.1,5l-7.2,24.7c-1.7,5.8-7.8,9.1-13.6,7.4
			C421.5,35.4,418.2,29.2,419.9,23.4z"/>
	</g>
	<g class="st0">
		
			<ellipse transform="matrix(0.2646 -0.9643 0.9643 0.2646 193.0363 526.5687)" class="st1" cx="441.8" cy="136.7" rx="12.3" ry="12.3"/>
		<path class="st1" d="M524.7,114.6l-125-34.3c-3.3-0.9-6.7,1-7.6,4.3l-31,113.1c-0.9,3.3,1,6.7,4.3,7.6l125,34.3
			c3.3,0.9,6.7-1,7.6-4.3l31-113.1C529.9,118.9,528,115.5,524.7,114.6z M503.4,192l-23.5-34.3c-1-1.7-3.1-1.9-4.4-1l-39.3,26.6
			l6.5,20.1l-33.4-46.1c-0.9-1.3-2.7-1.6-4-0.9l-30.2,13.2l22.1-80.4c0.5-1.6,2.2-2.6,3.8-2.2l119.1,32.7c1.6,0.5,2.6,2.1,2.2,3.8
			L503.4,192z"/>
	</g>
	<g class="st0">
		<ellipse transform="matrix(0.937 -0.3493 0.3493 0.937 -72.676 8.8646)" class="st1" cx="-11.8" cy="205.9" rx="9" ry="9"/>
		<path class="st1" d="M28,157.3l-88.9,33.2c-2.3,0.9-3.5,3.5-2.7,5.8l30,80.5c0.9,2.3,3.5,3.5,5.8,2.7l88.9-33.2
			c2.3-0.9,3.5-3.5,2.7-5.8l-30-80.5C33,157.6,30.4,156.4,28,157.3z M48.5,212.4l-28.7-10.3c-1.3-0.6-2.7,0.2-3.1,1.3L4.8,236
			l12.5,9.2l-39.5-13.1c-1.1-0.4-2.3,0.2-2.8,1.2L-37.2,254l-21.3-57.2c-0.4-1.2,0.2-2.5,1.3-2.9l84.7-31.6c1.2-0.4,2.5,0.2,2.9,1.3
			L48.5,212.4z"/>
	</g>
	<g class="st0">
		<path class="st1" d="M173,147.2l-6.8-35.1c-0.5-2.8-3.2-4.6-6-4l-35.1,6.8c-2.8,0.5-4.6,3.2-4,6l6.8,35.1c0.5,2.8,3.2,4.6,6,4
			l35.1-6.8C171.7,152.7,173.5,150,173,147.2z M138.9,139.5l7.7,6.3l6.6-13l14.2,12.9l-35.1,6.8L138.9,139.5z"/>
	</g>
	<g class="st0">
		<path class="st1" d="M321.5-25.8L211.6-36.3c-7.6-0.7-14.3,4.8-15,12.4L190,44.8c-0.7,7.6,4.8,14.3,12.4,15l109.9,10.5
			c7.6,0.7,14.3-4.8,15-12.4l6.5-68.7C334.7-18.4,329.1-25.1,321.5-25.8z M257.7-11.1l13.7,1.3l-1.3,13.7l-13.7-1.3L257.7-11.1z
			 M255.8,9.5l13.7,1.3l-1.3,13.7l-13.7-1.3L255.8,9.5z M237.1-13.1l13.7,1.3L249.6,2l-13.7-1.3L237.1-13.1z M235.2,7.5l13.7,1.3
			l-1.3,13.7l-13.7-1.3L235.2,7.5z M227,20.6l-13.7-1.3l1.3-13.7l13.7,1.3L227,20.6z M229,0l-13.7-1.3l1.3-13.7l13.7,1.3L229,0z
			 M286.2,54l-55-5.2l1.3-13.7l55,5.2L286.2,54z M288.8,26.5l-13.7-1.3l1.3-13.7l13.7,1.3L288.8,26.5z M290.8,5.9L277,4.6l1.3-13.7
			l13.7,1.3L290.8,5.9z M309.4,28.5l-13.7-1.3l1.3-13.7l13.7,1.3L309.4,28.5z M311.4,7.8l-13.7-1.3L299-7.2l13.7,1.3L311.4,7.8z"/>
	</g>
</g>
</svg>
